# xmcd
#
# Track frame offsets: 
#        150
#        13047
#        25780
#        39739
#        53405
#        65300
#        77915
#        91810
#        105335
#        118675
#        128910
#        146122
#        159727
#        173300
#        187125
#        198547
#        213145
#        224935
#        236255
#
# Disc length: 3311 seconds
#
# Revision: 3
# Processed by: cddbd v1.5.2PL0 Copyright (c) Steve Scherf et al.
# Submitted via: ExactAudioCopy v1.0b4
#
DISCID=060ced13
DTITLE=Various Artist - Fool Man Blues Cd 2
DYEAR=2001
DGENRE=Blues
TTITLE0=Bukka White - Bukka White - Sleepy Man Blues
TTITLE1=Hot Lips Page - Hot Lips Page - Rockin' At Ryans
TTITLE2=Jay 'Hootie' McShann - Jay 'Hootie' McShann - The Jumpin' Blue
TTITLE2=s
TTITLE3=Benny Goodman - Benny Goodman - Livery Stable Blues
TTITLE4=T-Bone Walker - T-Bone Walker - Sail On Boogie
TTITLE5=Champion Jack Dupree - T-Bone Walker - Warehouse Man Blues
TTITLE6=Sonny Terry - Sonny Terry - Sweet Woman
TTITLE7=Big Joe Turner - Big Joe Turner - S. K. Blues
TTITLE8=Robert Lee Johnson - Robert Lee Johnson - I Believe I'll Dust 
TTITLE8=My Broom
TTITLE9=Lightnin Hopkins - Lightnin Hopkins - Down Baby
TTITLE10=Blind John Davis - Blind John Davis - Everyday I Have The Blu
TTITLE10=es
TTITLE11=Sonny Boy Williamson - Sonny Boy Williamson - Western Union M
TTITLE11=an
TTITLE12=Curtis Crayton - Curtis Crayton - Texas Hop
TTITLE13=Willie Dixon - Willie Dixon - Big 3 Stomp
TTITLE14=Muddy Waters - Muddy Waters - Little Anna Mea
TTITLE15=Memphis Slim - Memphis Slim - Lend Me Your Love
TTITLE16=Brownie McGhee - Brownie McGhee - I'm Callin' Daisy
TTITLE17=Homer Harris - Homer Harris - Atomic Bomb Blues
TTITLE18=Lowell Fulson - Lowell Fulson - Don't Be So Evil
EXTD=
EXTT0=
EXTT1=
EXTT2=
EXTT3=
EXTT4=
EXTT5=
EXTT6=
EXTT7=
EXTT8=
EXTT9=
EXTT10=
EXTT11=
EXTT12=
EXTT13=
EXTT14=
EXTT15=
EXTT16=
EXTT17=
EXTT18=
PLAYORDER=
